<svg width="502" height="502" viewBox="0 0 502 502" fill="none" xmlns="http://www.w3.org/2000/svg">
<g filter="url(#filter0_ii_2001_2)">
<rect x="7" y="7" width="488" height="488" rx="88" fill="#B1B1B1"/>
</g>
<rect x="3.5" y="3.5" width="495" height="495" rx="91.5" stroke="url(#paint0_linear_2001_2)" stroke-width="7"/>
<g filter="url(#filter1_f_2001_2)">
<g filter="url(#filter2_if_2001_2)">
<circle cx="250.5" cy="250.5" r="207.5" fill="url(#paint1_linear_2001_2)"/>
</g>
<path d="M452 251C452 362.009 362.009 452 251 452C139.991 452 50 362.009 50 251C50 139.991 139.991 50 251 50C362.009 50 452 139.991 452 251ZM58.379 251C58.379 357.382 144.618 443.621 251 443.621C357.382 443.621 443.621 357.382 443.621 251C443.621 144.618 357.382 58.379 251 58.379C144.618 58.379 58.379 144.618 58.379 251Z" fill="white" fill-opacity="0.41"/>
</g>
<g filter="url(#filter3_f_2001_2)">
<circle cx="251" cy="251" r="183" fill="#454545"/>
</g>
<circle cx="250.5" cy="250.5" r="173.5" fill="url(#paint2_linear_2001_2)"/>
<path d="M431 251C431 350.411 350.411 431 251 431C151.589 431 71 350.411 71 251C71 151.589 151.589 71 251 71C350.411 71 431 151.589 431 251ZM103.518 251C103.518 332.452 169.548 398.482 251 398.482C332.452 398.482 398.482 332.452 398.482 251C398.482 169.548 332.452 103.518 251 103.518C169.548 103.518 103.518 169.548 103.518 251Z" fill="url(#paint3_linear_2001_2)"/>
<path d="M172.909 169.727H178.364V175.182H172.909V169.727ZM167.455 169.727H172.909V175.182H167.455V169.727ZM162 169.727H167.455V175.182H162V169.727ZM162 175.182H167.455V180.636H162V175.182ZM162 186.091H167.455V191.545H162V186.091ZM162 191.545H167.455V197H162V191.545ZM167.455 191.545H172.909V197H167.455V191.545ZM172.909 191.545H178.364V197H172.909V191.545ZM172.909 186.091H178.364V191.545H172.909V186.091ZM172.909 175.182H178.364V180.636H172.909V175.182ZM167.455 180.636H172.909V186.091H167.455V180.636ZM162 180.636H167.455V186.091H162V180.636ZM172.909 180.636H178.364V186.091H172.909V180.636Z" fill="#0EFF42"/>
<path d="M270 169.727H275.455V175.182H270V169.727ZM275.455 169.727H280.909V175.182H275.455V169.727ZM280.909 169.727H286.364V175.182H280.909V169.727ZM280.909 175.182H286.364V180.636H280.909V175.182ZM280.909 180.636H286.364V186.091H280.909V180.636ZM275.455 180.636H280.909V186.091H275.455V180.636ZM270 180.636H275.455V186.091H270V180.636ZM270 186.091H275.455V191.545H270V186.091ZM275.455 191.545H280.909V197H275.455V191.545ZM270 191.545H275.455V197H270V191.545ZM280.909 191.545H286.364V197H280.909V191.545Z" fill="#0EFF42"/>
<path d="M324 169.727H329.455V175.182H324V169.727ZM329.455 169.727H334.909V175.182H329.455V169.727ZM329.455 175.182H334.909V180.636H329.455V175.182ZM329.455 180.636H334.909V186.091H329.455V180.636ZM329.455 186.091H334.909V191.545H329.455V186.091ZM329.455 191.545H334.909V197H329.455V191.545Z" fill="#0EFF42"/>
<path d="M216 169.727H221.455V175.182H216V169.727ZM216 175.182H221.455V180.636H216V175.182ZM216 180.636H221.455V186.091H216V180.636ZM221.455 180.636H226.909V186.091H221.455V180.636ZM226.909 169.727H232.364V175.182H226.909V169.727ZM226.909 175.182H232.364V180.636H226.909V175.182ZM226.909 180.636H232.364V186.091H226.909V180.636ZM226.909 186.091H232.364V191.545H226.909V186.091ZM226.909 191.545H232.364V197H226.909V191.545Z" fill="#0EFF42"/>
<path d="M140 299.939H144.18V304.119H140V299.939ZM144.18 299.939H148.361V304.119H144.18V299.939ZM148.361 304.119H152.541V308.3H148.361V304.119ZM148.361 312.48H152.541V316.66H148.361V312.48ZM144.18 316.66H148.361V320.841H144.18V316.66ZM140 316.66H144.18V320.841H140V316.66ZM144.18 308.3H148.361V312.48H144.18V308.3ZM148.361 299.939H152.541V304.119H148.361V299.939ZM148.361 316.66H152.541V320.841H148.361V316.66ZM148.361 308.3H152.541V312.48H148.361V308.3ZM156.705 299.939H160.885V304.119H156.705V299.939ZM160.885 299.939H165.066V304.119H160.885V299.939ZM165.066 299.939H169.246V304.119H165.066V299.939ZM165.066 304.119H169.246V308.3H165.066V304.119ZM165.066 308.3H169.246V312.48H165.066V308.3ZM160.885 308.3H165.066V312.48H160.885V308.3ZM156.705 308.3H160.885V312.48H156.705V308.3ZM156.705 312.48H160.885V316.66H156.705V312.48ZM160.885 316.66H165.066V320.841H160.885V316.66ZM156.705 316.66H160.885V320.841H156.705V316.66ZM165.066 316.66H169.246V320.841H165.066V316.66Z" fill="#0EFF42"/>
<path d="M180.508 299.939H184.688V304.119H180.508V299.939ZM184.688 299.939H188.869V304.119H184.688V299.939ZM184.688 304.119H188.869V308.3H184.688V304.119ZM184.688 308.3H188.869V312.48H184.688V308.3ZM184.688 312.48H188.869V316.66H184.688V312.48ZM184.688 316.66H188.869V320.841H184.688V316.66ZM201.397 299.939H205.578V304.119H201.397V299.939ZM197.217 299.939H201.397V304.119H197.217V299.939ZM193.037 299.939H197.217V304.119H193.037V299.939ZM193.037 304.119H197.217V308.3H193.037V304.119ZM193.037 308.3H197.217V312.48H193.037V308.3ZM193.037 312.48H197.217V316.66H193.037V312.48ZM193.037 316.66H197.217V320.841H193.037V316.66ZM197.217 316.66H201.397V320.841H197.217V316.66ZM201.397 316.66H205.578V320.841H201.397V316.66ZM201.397 312.48H205.578V316.66H201.397V312.48ZM201.397 308.3H205.578V312.48H201.397V308.3ZM197.217 308.3H201.397V312.48H197.217V308.3Z" fill="#0EFF42"/>
<path d="M235.361 300.098H239.541V304.279H235.361V300.098ZM231.18 300.098H235.361V304.279H231.18V300.098ZM227 300.098H231.18V304.279H227V300.098ZM227 304.279H231.18V308.459H227V304.279ZM227 312.639H231.18V316.82H227V312.639ZM227 316.82H231.18V321H227V316.82ZM231.18 316.82H235.361V321H231.18V316.82ZM235.361 316.82H239.541V321H235.361V316.82ZM235.361 312.639H239.541V316.82H235.361V312.639ZM235.361 304.279H239.541V308.459H235.361V304.279ZM231.18 308.459H235.361V312.639H231.18V308.459ZM227 308.459H231.18V312.639H227V308.459ZM235.361 308.459H239.541V312.639H235.361V308.459Z" fill="#0EFF42"/>
<path d="M265 300.098H269.18V304.279H265V300.098ZM265 304.279H269.18V308.459H265V304.279ZM265 308.459H269.18V312.639H265V308.459ZM269.18 308.459H273.361V312.639H269.18V308.459ZM273.361 300.098H277.541V304.279H273.361V300.098ZM273.361 304.279H277.541V308.459H273.361V304.279ZM273.361 308.459H277.541V312.639H273.361V308.459ZM273.361 312.639H277.541V316.82H273.361V312.639ZM273.361 316.82H277.541V321H273.361V316.82Z" fill="#0EFF42"/>
<path d="M303.912 299.939H308.092V304.119H303.912V299.939ZM308.092 299.939H312.273V304.119H308.092V299.939ZM312.273 299.939H316.453V304.119H312.273V299.939ZM312.273 304.119H316.453V308.3H312.273V304.119ZM312.273 308.3H316.453V312.48H312.273V308.3ZM308.092 308.3H312.273V312.48H308.092V308.3ZM303.912 308.3H308.092V312.48H303.912V308.3ZM303.912 312.48H308.092V316.66H303.912V312.48ZM308.092 316.66H312.273V320.841H308.092V316.66ZM303.912 316.66H308.092V320.841H303.912V316.66ZM312.273 316.66H316.453V320.841H312.273V316.66Z" fill="#0EFF42"/>
<path d="M343.477 299.939H347.657V304.119H343.477V299.939ZM347.657 299.939H351.837V304.119H347.657V299.939ZM347.657 304.119H351.837V308.3H347.657V304.119ZM347.657 308.3H351.837V312.48H347.657V308.3ZM347.657 312.48H351.837V316.66H347.657V312.48ZM347.657 316.66H351.837V320.841H347.657V316.66Z" fill="#0EFF42"/>
<defs>
<filter id="filter0_ii_2001_2" x="-12" y="-9" width="523" height="521" filterUnits="userSpaceOnUse" color-interpolation-filters="sRGB">
<feFlood flood-opacity="0" result="BackgroundImageFix"/>
<feBlend mode="normal" in="SourceGraphic" in2="BackgroundImageFix" result="shape"/>
<feColorMatrix in="SourceAlpha" type="matrix" values="0 0 0 0 0 0 0 0 0 0 0 0 0 0 0 0 0 0 127 0" result="hardAlpha"/>
<feOffset dx="9" dy="10"/>
<feGaussianBlur stdDeviation="16.65"/>
<feComposite in2="hardAlpha" operator="arithmetic" k2="-1" k3="1"/>
<feColorMatrix type="matrix" values="0 0 0 0 0 0 0 0 0 0 0 0 0 0 0 0 0 0 1 0"/>
<feBlend mode="normal" in2="shape" result="effect1_innerShadow_2001_2"/>
<feColorMatrix in="SourceAlpha" type="matrix" values="0 0 0 0 0 0 0 0 0 0 0 0 0 0 0 0 0 0 127 0" result="hardAlpha"/>
<feOffset dx="-12" dy="-9"/>
<feGaussianBlur stdDeviation="6.3"/>
<feComposite in2="hardAlpha" operator="arithmetic" k2="-1" k3="1"/>
<feColorMatrix type="matrix" values="0 0 0 0 0 0 0 0 0 0 0 0 0 0 0 0 0 0 0.69 0"/>
<feBlend mode="normal" in2="effect1_innerShadow_2001_2" result="effect2_innerShadow_2001_2"/>
</filter>
<filter id="filter1_f_2001_2" x="34.6" y="34.6" width="431.8" height="431.8" filterUnits="userSpaceOnUse" color-interpolation-filters="sRGB">
<feFlood flood-opacity="0" result="BackgroundImageFix"/>
<feBlend mode="normal" in="SourceGraphic" in2="BackgroundImageFix" result="shape"/>
<feGaussianBlur stdDeviation="4.2" result="effect1_foregroundBlur_2001_2"/>
</filter>
<filter id="filter2_if_2001_2" x="41" y="41" width="419" height="421" filterUnits="userSpaceOnUse" color-interpolation-filters="sRGB">
<feFlood flood-opacity="0" result="BackgroundImageFix"/>
<feBlend mode="normal" in="SourceGraphic" in2="BackgroundImageFix" result="shape"/>
<feColorMatrix in="SourceAlpha" type="matrix" values="0 0 0 0 0 0 0 0 0 0 0 0 0 0 0 0 0 0 127 0" result="hardAlpha"/>
<feMorphology radius="9" operator="erode" in="SourceAlpha" result="effect1_innerShadow_2001_2"/>
<feOffset dy="4"/>
<feGaussianBlur stdDeviation="9.3"/>
<feComposite in2="hardAlpha" operator="arithmetic" k2="-1" k3="1"/>
<feColorMatrix type="matrix" values="0 0 0 0 0.238333 0 0 0 0 0.23595 0 0 0 0 0.23595 0 0 0 0.5 0"/>
<feBlend mode="normal" in2="shape" result="effect1_innerShadow_2001_2"/>
<feGaussianBlur stdDeviation="1" result="effect2_foregroundBlur_2001_2"/>
</filter>
<filter id="filter3_f_2001_2" x="51.2" y="51.2" width="399.6" height="399.6" filterUnits="userSpaceOnUse" color-interpolation-filters="sRGB">
<feFlood flood-opacity="0" result="BackgroundImageFix"/>
<feBlend mode="normal" in="SourceGraphic" in2="BackgroundImageFix" result="shape"/>
<feGaussianBlur stdDeviation="8.4" result="effect1_foregroundBlur_2001_2"/>
</filter>
<linearGradient id="paint0_linear_2001_2" x1="251" y1="7" x2="251" y2="495" gradientUnits="userSpaceOnUse">
<stop stop-color="#DDDDDD"/>
<stop offset="0.485" stop-color="#B1B1B1"/>
<stop offset="1" stop-color="#888686"/>
</linearGradient>
<linearGradient id="paint1_linear_2001_2" x1="250.5" y1="43" x2="250.5" y2="458" gradientUnits="userSpaceOnUse">
<stop stop-color="#D9D9D9"/>
<stop offset="0.505" stop-color="#B1B1B1"/>
<stop offset="1" stop-color="#8C8C8C"/>
</linearGradient>
<linearGradient id="paint2_linear_2001_2" x1="251" y1="-43" x2="250.5" y2="424" gradientUnits="userSpaceOnUse">
<stop offset="0.0373063"/>
<stop offset="0.924485" stop-color="#454545"/>
</linearGradient>
<linearGradient id="paint3_linear_2001_2" x1="251" y1="71" x2="251" y2="431" gradientUnits="userSpaceOnUse">
<stop stop-color="#454545"/>
<stop offset="0.505" stop-color="#B1B1B1"/>
<stop offset="1" stop-color="white"/>
</linearGradient>
</defs>
</svg>
