<svg width="502" height="502" viewBox="0 0 502 502" fill="none" xmlns="http://www.w3.org/2000/svg">
<g filter="url(#filter0_ii_1_126)">
<rect x="7" y="7" width="488" height="488" rx="88" fill="#B1B1B1"/>
</g>
<rect x="3.5" y="3.5" width="495" height="495" rx="91.5" stroke="url(#paint0_linear_1_126)" stroke-width="7"/>
<g filter="url(#filter1_f_1_126)">
<g filter="url(#filter2_if_1_126)">
<circle cx="250.5" cy="250.5" r="207.5" fill="url(#paint1_linear_1_126)"/>
</g>
<path d="M452 251C452 362.009 362.009 452 251 452C139.991 452 50 362.009 50 251C50 139.991 139.991 50 251 50C362.009 50 452 139.991 452 251ZM58.379 251C58.379 357.382 144.618 443.621 251 443.621C357.382 443.621 443.621 357.382 443.621 251C443.621 144.618 357.382 58.379 251 58.379C144.618 58.379 58.379 144.618 58.379 251Z" fill="white" fill-opacity="0.41"/>
</g>
<g filter="url(#filter3_f_1_126)">
<circle cx="251" cy="251" r="183" fill="#454545"/>
</g>
<circle cx="250.5" cy="250.5" r="173.5" fill="url(#paint2_linear_1_126)"/>
<path d="M431 251C431 350.411 350.411 431 251 431C151.589 431 71 350.411 71 251C71 151.589 151.589 71 251 71C350.411 71 431 151.589 431 251ZM103.518 251C103.518 332.452 169.548 398.482 251 398.482C332.452 398.482 398.482 332.452 398.482 251C398.482 169.548 332.452 103.518 251 103.518C169.548 103.518 103.518 169.548 103.518 251Z" fill="url(#paint3_linear_1_126)"/>
<defs>
<filter id="filter0_ii_1_126" x="-12" y="-9" width="523" height="521" filterUnits="userSpaceOnUse" color-interpolation-filters="sRGB">
<feFlood flood-opacity="0" result="BackgroundImageFix"/>
<feBlend mode="normal" in="SourceGraphic" in2="BackgroundImageFix" result="shape"/>
<feColorMatrix in="SourceAlpha" type="matrix" values="0 0 0 0 0 0 0 0 0 0 0 0 0 0 0 0 0 0 127 0" result="hardAlpha"/>
<feOffset dx="9" dy="10"/>
<feGaussianBlur stdDeviation="16.65"/>
<feComposite in2="hardAlpha" operator="arithmetic" k2="-1" k3="1"/>
<feColorMatrix type="matrix" values="0 0 0 0 0 0 0 0 0 0 0 0 0 0 0 0 0 0 1 0"/>
<feBlend mode="normal" in2="shape" result="effect1_innerShadow_1_126"/>
<feColorMatrix in="SourceAlpha" type="matrix" values="0 0 0 0 0 0 0 0 0 0 0 0 0 0 0 0 0 0 127 0" result="hardAlpha"/>
<feOffset dx="-12" dy="-9"/>
<feGaussianBlur stdDeviation="6.3"/>
<feComposite in2="hardAlpha" operator="arithmetic" k2="-1" k3="1"/>
<feColorMatrix type="matrix" values="0 0 0 0 0 0 0 0 0 0 0 0 0 0 0 0 0 0 0.69 0"/>
<feBlend mode="normal" in2="effect1_innerShadow_1_126" result="effect2_innerShadow_1_126"/>
</filter>
<filter id="filter1_f_1_126" x="34.6" y="34.6" width="431.8" height="431.8" filterUnits="userSpaceOnUse" color-interpolation-filters="sRGB">
<feFlood flood-opacity="0" result="BackgroundImageFix"/>
<feBlend mode="normal" in="SourceGraphic" in2="BackgroundImageFix" result="shape"/>
<feGaussianBlur stdDeviation="4.2" result="effect1_foregroundBlur_1_126"/>
</filter>
<filter id="filter2_if_1_126" x="41" y="41" width="419" height="421" filterUnits="userSpaceOnUse" color-interpolation-filters="sRGB">
<feFlood flood-opacity="0" result="BackgroundImageFix"/>
<feBlend mode="normal" in="SourceGraphic" in2="BackgroundImageFix" result="shape"/>
<feColorMatrix in="SourceAlpha" type="matrix" values="0 0 0 0 0 0 0 0 0 0 0 0 0 0 0 0 0 0 127 0" result="hardAlpha"/>
<feMorphology radius="9" operator="erode" in="SourceAlpha" result="effect1_innerShadow_1_126"/>
<feOffset dy="4"/>
<feGaussianBlur stdDeviation="9.3"/>
<feComposite in2="hardAlpha" operator="arithmetic" k2="-1" k3="1"/>
<feColorMatrix type="matrix" values="0 0 0 0 0.238333 0 0 0 0 0.23595 0 0 0 0 0.23595 0 0 0 0.5 0"/>
<feBlend mode="normal" in2="shape" result="effect1_innerShadow_1_126"/>
<feGaussianBlur stdDeviation="1" result="effect2_foregroundBlur_1_126"/>
</filter>
<filter id="filter3_f_1_126" x="51.2" y="51.2" width="399.6" height="399.6" filterUnits="userSpaceOnUse" color-interpolation-filters="sRGB">
<feFlood flood-opacity="0" result="BackgroundImageFix"/>
<feBlend mode="normal" in="SourceGraphic" in2="BackgroundImageFix" result="shape"/>
<feGaussianBlur stdDeviation="8.4" result="effect1_foregroundBlur_1_126"/>
</filter>
<linearGradient id="paint0_linear_1_126" x1="251" y1="7" x2="251" y2="495" gradientUnits="userSpaceOnUse">
<stop stop-color="#DDDDDD"/>
<stop offset="0.485" stop-color="#B1B1B1"/>
<stop offset="1" stop-color="#888686"/>
</linearGradient>
<linearGradient id="paint1_linear_1_126" x1="250.5" y1="43" x2="250.5" y2="458" gradientUnits="userSpaceOnUse">
<stop stop-color="#D9D9D9"/>
<stop offset="0.505" stop-color="#B1B1B1"/>
<stop offset="1" stop-color="#8C8C8C"/>
</linearGradient>
<linearGradient id="paint2_linear_1_126" x1="251" y1="-43" x2="250.5" y2="424" gradientUnits="userSpaceOnUse">
<stop offset="0.0373063"/>
<stop offset="0.924485" stop-color="#454545"/>
</linearGradient>
<linearGradient id="paint3_linear_1_126" x1="251" y1="71" x2="251" y2="431" gradientUnits="userSpaceOnUse">
<stop stop-color="#454545"/>
<stop offset="0.505" stop-color="#B1B1B1"/>
<stop offset="1" stop-color="white"/>
</linearGradient>
</defs>
</svg>
